<?xml version="1.0" encoding="UTF-8"?>
<!DOCTYPE svg PUBLIC "-//W3C//DTD SVG 1.1//EN" "http://www.w3.org/Graphics/SVG/1.1/DTD/svg11.dtd">
<svg xmlns="http://www.w3.org/2000/svg" version="1.1" width="512px" height="512px" style="shape-rendering:geometricPrecision; text-rendering:geometricPrecision; image-rendering:optimizeQuality; fill-rule:evenodd; clip-rule:evenodd" xmlns:xlink="http://www.w3.org/1999/xlink">
<g><path style="opacity:1" fill="#9ca6aa" d="M 252.5,2.5 C 254.229,3.11746 255.729,4.11746 257,5.5C 265.83,26.8143 272.497,48.8143 277,71.5C 280.933,104.763 284.266,138.097 287,171.5C 292.333,190.167 297.667,208.833 303,227.5C 303.333,233.833 303.667,240.167 304,246.5C 334.041,272.21 364.374,297.543 395,322.5C 395.333,313.5 395.667,304.5 396,295.5C 396.36,293.392 397.027,291.392 398,289.5C 399.333,288.167 400.667,288.167 402,289.5C 402.822,291.788 403.489,294.122 404,296.5C 404.5,327.832 404.667,359.165 404.5,390.5C 401.5,390.5 398.5,390.5 395.5,390.5C 395.5,384.833 395.5,379.167 395.5,373.5C 359.167,373.5 322.833,373.5 286.5,373.5C 286.333,387.171 286.5,400.837 287,414.5C 306.333,431.167 325.667,447.833 345,464.5C 345.667,473.5 345.667,482.5 345,491.5C 342.5,494 340,496.5 337.5,499C 320.503,499.5 303.503,499.667 286.5,499.5C 286.5,496.833 286.5,494.167 286.5,491.5C 283.5,491.5 280.5,491.5 277.5,491.5C 277.667,480.162 277.5,468.828 277,457.5C 274.259,474.427 272.092,491.427 270.5,508.5C 258.833,508.5 247.167,508.5 235.5,508.5C 233.744,491.455 231.578,474.455 229,457.5C 228.5,468.828 228.333,480.162 228.5,491.5C 225.5,491.5 222.5,491.5 219.5,491.5C 219.5,494.167 219.5,496.833 219.5,499.5C 202.163,499.667 184.83,499.5 167.5,499C 165,496.5 162.5,494 160,491.5C 159.333,482.833 159.333,474.167 160,465.5C 179.333,448.833 198.667,432.167 218,415.5C 218.5,401.504 218.667,387.504 218.5,373.5C 182.5,373.5 146.5,373.5 110.5,373.5C 110.5,379.167 110.5,384.833 110.5,390.5C 107.5,390.5 104.5,390.5 101.5,390.5C 101.333,358.832 101.5,327.165 102,295.5C 102.36,293.392 103.027,291.392 104,289.5C 107.062,287.87 108.729,288.87 109,292.5C 110.198,302.451 110.865,312.451 111,322.5C 141.333,297.167 171.667,271.833 202,246.5C 202.333,239.833 202.667,233.167 203,226.5C 208.646,207.25 213.979,187.917 219,168.5C 221.614,135.744 224.947,103.078 229,70.5C 233.322,48.8731 239.656,27.8731 248,7.5C 249.059,5.34079 250.559,3.67413 252.5,2.5 Z"/></g>
</svg>
