<?xml version="1.0" encoding="UTF-8"?>
<!DOCTYPE svg PUBLIC "-//W3C//DTD SVG 1.1//EN" "http://www.w3.org/Graphics/SVG/1.1/DTD/svg11.dtd">
<svg xmlns="http://www.w3.org/2000/svg" version="1.1" width="800px" height="800px" style="shape-rendering:geometricPrecision; text-rendering:geometricPrecision; image-rendering:optimizeQuality; fill-rule:evenodd; clip-rule:evenodd" xmlns:xlink="http://www.w3.org/1999/xlink">
<g><path style="opacity:1" fill="#cc0000" d="M 398.5,48.5 C 399.496,48.4142 400.329,48.7476 401,49.5C 400.095,55.5252 400.428,61.5252 402,67.5C 418.21,123.726 424.544,181.059 421,239.5C 421.311,237.444 421.811,235.444 422.5,233.5C 426.833,233.167 431.167,232.833 435.5,232.5C 440.254,232.534 444.754,233.201 449,234.5C 450.667,267.189 452.667,299.855 455,332.5C 459.803,350.046 464.136,367.713 468,385.5C 470.047,400.52 472.047,415.52 474,430.5C 476.354,435.858 479.854,440.358 484.5,444C 528.167,482.333 571.833,520.667 615.5,559C 615.833,559.167 616.167,559.333 616.5,559.5C 617.604,555.019 617.604,550.519 616.5,546C 616.274,539.335 618.274,533.501 622.5,528.5C 624.753,529.253 626.587,530.586 628,532.5C 629.322,563.824 629.656,595.158 629,626.5C 628.699,634.97 627.532,643.304 625.5,651.5C 624.127,651.657 622.793,651.49 621.5,651C 618.509,645.345 613.842,642.011 607.5,641C 570.753,631.98 534.086,622.647 497.5,613C 483.257,609.355 468.923,606.189 454.5,603.5C 454.874,612.457 457.374,620.79 462,628.5C 486.289,660.911 510.455,693.411 534.5,726C 526.349,733.317 518.349,740.817 510.5,748.5C 495.837,740.504 481.503,732.004 467.5,723C 462.547,722.005 457.547,721.338 452.5,721C 451.874,720.25 451.374,719.416 451,718.5C 449.989,719.337 448.822,719.67 447.5,719.5C 446.982,729.826 446.649,740.159 446.5,750.5C 415.167,749.2 383.834,749.2 352.5,750.5C 351.755,740.174 351.089,729.84 350.5,719.5C 349.178,719.67 348.011,719.337 347,718.5C 346.626,719.416 346.126,720.25 345.5,721C 341.554,722.662 337.554,722.996 333.5,722C 318.292,731.102 302.959,739.935 287.5,748.5C 279.228,741.565 271.228,734.232 263.5,726.5C 287.141,694.359 310.974,662.359 335,630.5C 339.58,622.342 342.747,613.675 344.5,604.5C 343.833,604.167 343.167,603.833 342.5,603.5C 290.796,616.176 239.129,629.009 187.5,642C 183.281,643.012 180.448,645.512 179,649.5C 175.46,652.651 173.126,651.985 172,647.5C 169.419,631.451 168.252,615.285 168.5,599C 168.714,576.435 169.547,553.935 171,531.5C 175.448,527.203 178.448,528.203 180,534.5C 181.666,543.141 181.999,551.808 181,560.5C 227.594,520.577 273.594,479.91 319,438.5C 320.92,435.661 322.587,432.661 324,429.5C 327.321,412.623 329.987,395.623 332,378.5C 336.007,361.818 340.007,345.151 344,328.5C 345.75,296.485 347.584,264.485 349.5,232.5C 358.167,232.5 366.833,232.5 375.5,232.5C 375.176,236.555 375.509,240.555 376.5,244.5C 373.588,183.351 380.422,123.351 397,64.5C 397.738,60.2903 397.572,56.1236 396.5,52C 396.978,50.6974 397.645,49.5307 398.5,48.5 Z M 393.5,218.5 C 396.976,217.357 400.642,217.19 404.5,218C 403.333,219.833 402.167,221.667 401,223.5C 400.577,230.509 400.744,237.509 401.5,244.5C 399.833,244.5 398.167,244.5 396.5,244.5C 396.899,238.925 397.566,233.425 398.5,228C 398.223,224.037 396.556,220.871 393.5,218.5 Z M 390.5,273.5 C 391.833,273.5 393.167,273.5 394.5,273.5C 394.5,278.167 394.5,282.833 394.5,287.5C 391.5,287.5 388.5,287.5 385.5,287.5C 385.334,283.486 385.501,279.486 386,275.5C 387.622,274.901 389.122,274.234 390.5,273.5 Z M 403.5,273.5 C 406.48,273.62 409.313,274.287 412,275.5C 412.499,279.486 412.666,283.486 412.5,287.5C 409.5,287.5 406.5,287.5 403.5,287.5C 403.5,282.833 403.5,278.167 403.5,273.5 Z"/></g>
</svg>
